<svg viewBox="0 0 960 620" xmlns="http://www.w3.org/2000/svg" font-family="Segoe UI, Arial, sans-serif">
  <rect width="960" height="620" fill="#0f1923" rx="16"/>

  <!-- Title -->
  <text x="480" y="36" text-anchor="middle" fill="#ffffff" font-size="17" font-weight="700">Test Use Cases — Amazon Macie Sensitive Data Detection</text>
  <text x="480" y="56" text-anchor="middle" fill="#8899aa" font-size="11">6 scenarios covering all finding types and notification paths</text>

  <!-- ══ TC-01 ══ -->
  <rect x="30" y="76" width="275" height="155" rx="10" fill="#1c2b3a" stroke="#4a9eff" stroke-width="2"/>
  <!-- Header -->
  <rect x="30" y="76" width="275" height="32" rx="10" fill="#1a3a5a"/>
  <rect x="30" y="92" width="275" height="16" fill="#1a3a5a"/>
  <text x="44" y="97" fill="#4a9eff" font-size="10" font-weight="700">TC-01</text>
  <text x="80" y="97" fill="#ffffff" font-size="10" font-weight="600">PII Detection — CSV File</text>
  <rect x="218" y="81" width="75" height="16" rx="4" fill="#1a73e8"/>
  <text x="255" y="93" text-anchor="middle" fill="#fff" font-size="9" font-weight="700">UPLOAD FILE</text>

  <text x="44" y="124" fill="#8899aa" font-size="9" font-weight="600">Test File:</text>
  <text x="100" y="124" fill="#81c995" font-size="9">pii-sample.csv</text>
  <text x="44" y="138" fill="#8899aa" font-size="9" font-weight="600">Expects:</text>
  <text x="44" y="152" fill="#8899aa" font-size="9">• Finding type: SensitiveData:S3Object/Personal</text>
  <text x="44" y="164" fill="#8899aa" font-size="9">• Identifiers: SSN, Name, Phone, Email, DOB</text>
  <text x="44" y="176" fill="#8899aa" font-size="9">• Severity: HIGH</text>
  <text x="44" y="188" fill="#8899aa" font-size="9">• SNS email triggered: ✓ Both rules fire</text>
  <text x="44" y="204" fill="#5a6a7a" font-size="9">Command: aws s3 cp test-data/pii-sample.csv s3://&lt;bucket&gt;/new/</text>
  <!-- Status badge -->
  <rect x="210" y="195" width="80" height="26" rx="6" fill="#1e3a1e"/>
  <text x="250" y="212" text-anchor="middle" fill="#34a853" font-size="10" font-weight="700">⬤ HIGH</text>

  <!-- ══ TC-02 ══ -->
  <rect x="340" y="76" width="275" height="155" rx="10" fill="#1c2b3a" stroke="#fbbc04" stroke-width="2"/>
  <rect x="340" y="76" width="275" height="32" rx="10" fill="#3a2a00"/>
  <rect x="340" y="92" width="275" height="16" fill="#3a2a00"/>
  <text x="354" y="97" fill="#fbbc04" font-size="10" font-weight="700">TC-02</text>
  <text x="392" y="97" fill="#ffffff" font-size="10" font-weight="600">Financial Data — Credit Cards</text>
  <rect x="530" y="81" width="75" height="16" rx="4" fill="#1a73e8"/>
  <text x="567" y="93" text-anchor="middle" fill="#fff" font-size="9" font-weight="700">UPLOAD FILE</text>

  <text x="354" y="124" fill="#8899aa" font-size="9" font-weight="600">Test File:</text>
  <text x="410" y="124" fill="#81c995" font-size="9">financial-sample.csv</text>
  <text x="354" y="138" fill="#8899aa" font-size="9" font-weight="600">Expects:</text>
  <text x="354" y="152" fill="#8899aa" font-size="9">• Finding type: SensitiveData:S3Object/Financial</text>
  <text x="354" y="164" fill="#8899aa" font-size="9">• Identifiers: Credit Card, Bank Account, CVV</text>
  <text x="354" y="176" fill="#8899aa" font-size="9">• Severity: HIGH</text>
  <text x="354" y="188" fill="#8899aa" font-size="9">• SNS email triggered: ✓ Both rules fire</text>
  <text x="354" y="204" fill="#5a6a7a" font-size="9">Command: aws s3 cp test-data/financial-sample.csv s3://&lt;bucket&gt;/</text>
  <rect x="520" y="195" width="80" height="26" rx="6" fill="#1e3a1e"/>
  <text x="560" y="212" text-anchor="middle" fill="#34a853" font-size="10" font-weight="700">⬤ HIGH</text>

  <!-- ══ TC-03 ══ -->
  <rect x="650" y="76" width="275" height="155" rx="10" fill="#1c2b3a" stroke="#ff6d00" stroke-width="2"/>
  <rect x="650" y="76" width="275" height="32" rx="10" fill="#3a1a00"/>
  <rect x="650" y="92" width="275" height="16" fill="#3a1a00"/>
  <text x="664" y="97" fill="#ff8c42" font-size="10" font-weight="700">TC-03</text>
  <text x="700" y="97" fill="#ffffff" font-size="10" font-weight="600">AWS Credentials Exposed</text>
  <rect x="838" y="81" width="75" height="16" rx="4" fill="#1a73e8"/>
  <text x="875" y="93" text-anchor="middle" fill="#fff" font-size="9" font-weight="700">UPLOAD FILE</text>

  <text x="664" y="124" fill="#8899aa" font-size="9" font-weight="600">Test File:</text>
  <text x="716" y="124" fill="#81c995" font-size="9">credentials-sample.txt</text>
  <text x="664" y="138" fill="#8899aa" font-size="9" font-weight="600">Expects:</text>
  <text x="664" y="152" fill="#8899aa" font-size="9">• Finding type: SensitiveData:S3Object/Credentials</text>
  <text x="664" y="164" fill="#8899aa" font-size="9">• Identifiers: AWS Key, API Key, Password</text>
  <text x="664" y="176" fill="#8899aa" font-size="9">• Severity: HIGH (most critical)</text>
  <text x="664" y="188" fill="#8899aa" font-size="9">• SNS email triggered: ✓ Both rules fire</text>
  <text x="664" y="204" fill="#5a6a7a" font-size="9">Command: aws s3 cp test-data/credentials-sample.txt s3://</text>
  <rect x="830" y="195" width="80" height="26" rx="6" fill="#1e3a1e"/>
  <text x="870" y="212" text-anchor="middle" fill="#34a853" font-size="10" font-weight="700">⬤ HIGH</text>

  <!-- ══ TC-04 ══ -->
  <rect x="30" y="255" width="275" height="155" rx="10" fill="#1c2b3a" stroke="#34a853" stroke-width="2"/>
  <rect x="30" y="255" width="275" height="32" rx="10" fill="#0a2a0a"/>
  <rect x="30" y="271" width="275" height="16" fill="#0a2a0a"/>
  <text x="44" y="276" fill="#81c995" font-size="10" font-weight="700">TC-04</text>
  <text x="80" y="276" fill="#ffffff" font-size="10" font-weight="600">Medical PHI — JSON File</text>
  <rect x="218" y="260" width="75" height="16" rx="4" fill="#1a73e8"/>
  <text x="255" y="272" text-anchor="middle" fill="#fff" font-size="9" font-weight="700">UPLOAD FILE</text>

  <text x="44" y="303" fill="#8899aa" font-size="9" font-weight="600">Test File:</text>
  <text x="100" y="303" fill="#81c995" font-size="9">medical-sample.json</text>
  <text x="44" y="317" fill="#8899aa" font-size="9" font-weight="600">Expects:</text>
  <text x="44" y="331" fill="#8899aa" font-size="9">• Finding type: SensitiveData:S3Object/Personal</text>
  <text x="44" y="343" fill="#8899aa" font-size="9">• Identifiers: SSN, DOB, Health data (PHI)</text>
  <text x="44" y="355" fill="#8899aa" font-size="9">• Severity: HIGH</text>
  <text x="44" y="367" fill="#8899aa" font-size="9">• SNS email triggered: ✓ Both rules fire</text>
  <text x="44" y="383" fill="#5a6a7a" font-size="9">Command: aws s3 cp test-data/medical-sample.json s3://</text>
  <rect x="210" y="374" width="80" height="26" rx="6" fill="#1e3a1e"/>
  <text x="250" y="391" text-anchor="middle" fill="#34a853" font-size="10" font-weight="700">⬤ HIGH</text>

  <!-- ══ TC-05 ══ -->
  <rect x="340" y="255" width="275" height="155" rx="10" fill="#1c2b3a" stroke="#9c27b0" stroke-width="2"/>
  <rect x="340" y="255" width="275" height="32" rx="10" fill="#1a0a2a"/>
  <rect x="340" y="271" width="275" height="16" fill="#1a0a2a"/>
  <text x="354" y="276" fill="#ce93d8" font-size="10" font-weight="700">TC-05</text>
  <text x="390" y="276" fill="#ffffff" font-size="10" font-weight="600">Sample Findings (Instant Test)</text>
  <rect x="528" y="260" width="75" height="16" rx="4" fill="#9c27b0"/>
  <text x="565" y="272" text-anchor="middle" fill="#fff" font-size="9" font-weight="700">AWS CLI</text>

  <text x="354" y="303" fill="#8899aa" font-size="9" font-weight="600">Method:</text>
  <text x="396" y="303" fill="#81c995" font-size="9">make macie-sample</text>
  <text x="354" y="317" fill="#8899aa" font-size="9" font-weight="600">Expects:</text>
  <text x="354" y="331" fill="#8899aa" font-size="9">• Instant findings (no wait for scan)</text>
  <text x="354" y="343" fill="#8899aa" font-size="9">• 3 types: Personal · Financial · Credentials</text>
  <text x="354" y="355" fill="#8899aa" font-size="9">• All HIGH severity</text>
  <text x="354" y="367" fill="#8899aa" font-size="9">• Email within ~1 minute</text>
  <text x="354" y="383" fill="#5a6a7a" font-size="9">Best for: quick notification pipeline test</text>
  <rect x="517" y="374" width="90" height="26" rx="6" fill="#1a0a2a" stroke="#9c27b0" stroke-width="1"/>
  <text x="562" y="391" text-anchor="middle" fill="#ce93d8" font-size="10" font-weight="700">⚡ INSTANT</text>

  <!-- ══ TC-06 ══ -->
  <rect x="650" y="255" width="275" height="155" rx="10" fill="#1c2b3a" stroke="#607d8b" stroke-width="2"/>
  <rect x="650" y="255" width="275" height="32" rx="10" fill="#1a2a2a"/>
  <rect x="650" y="271" width="275" height="16" fill="#1a2a2a"/>
  <text x="664" y="276" fill="#90a4ae" font-size="10" font-weight="700">TC-06</text>
  <text x="700" y="276" fill="#ffffff" font-size="10" font-weight="600">Clean File — No Finding Expected</text>
  <rect x="838" y="260" width="75" height="16" rx="4" fill="#607d8b"/>
  <text x="875" y="272" text-anchor="middle" fill="#fff" font-size="9" font-weight="700">NEGATIVE</text>

  <text x="664" y="303" fill="#8899aa" font-size="9" font-weight="600">Test File:</text>
  <text x="716" y="303" fill="#81c995" font-size="9">clean-data.csv (no PII)</text>
  <text x="664" y="317" fill="#8899aa" font-size="9" font-weight="600">Expects:</text>
  <text x="664" y="331" fill="#8899aa" font-size="9">• NO finding generated</text>
  <text x="664" y="343" fill="#8899aa" font-size="9">• No SNS email sent</text>
  <text x="664" y="355" fill="#8899aa" font-size="9">• Macie reports 0 sensitive objects</text>
  <text x="664" y="367" fill="#8899aa" font-size="9">• Validates no false positives</text>
  <text x="664" y="383" fill="#5a6a7a" font-size="9">Verifies: scan works but no alert triggered</text>
  <rect x="830" y="374" width="80" height="26" rx="6" fill="#1a2a2a" stroke="#607d8b" stroke-width="1"/>
  <text x="870" y="391" text-anchor="middle" fill="#90a4ae" font-size="10" font-weight="700">✓ PASS</text>

  <!-- ══ EXPECTED RESULTS TABLE ══ -->
  <rect x="30" y="430" width="900" height="160" rx="10" fill="#131e2b" stroke="#2a3a4a" stroke-width="1"/>
  <text x="480" y="453" text-anchor="middle" fill="#ffffff" font-size="13" font-weight="700">Expected Results Summary</text>

  <!-- Table header -->
  <rect x="40" y="462" width="880" height="22" rx="4" fill="#1a2a3a"/>
  <text x="80" y="477" fill="#8899aa" font-size="9" font-weight="700">Test Case</text>
  <text x="220" y="477" fill="#8899aa" font-size="9" font-weight="700">Finding Type</text>
  <text x="420" y="477" fill="#8899aa" font-size="9" font-weight="700">Severity</text>
  <text x="510" y="477" fill="#8899aa" font-size="9" font-weight="700">Rule 1 (All)</text>
  <text x="620" y="477" fill="#8899aa" font-size="9" font-weight="700">Rule 2 (High)</text>
  <text x="740" y="477" fill="#8899aa" font-size="9" font-weight="700">Email Sent</text>
  <text x="840" y="477" fill="#8899aa" font-size="9" font-weight="700">Result</text>

  <!-- Rows -->
  <text x="80" y="497" fill="#4a9eff" font-size="9">TC-01 PII CSV</text>
  <text x="220" y="497" fill="#8899aa" font-size="9">SensitiveData:S3Object/Personal</text>
  <text x="420" y="497" fill="#ea4335" font-size="9" font-weight="700">HIGH</text>
  <text x="510" y="497" fill="#34a853" font-size="9">✓ FIRES</text>
  <text x="620" y="497" fill="#34a853" font-size="9">✓ FIRES</text>
  <text x="740" y="497" fill="#34a853" font-size="9">✓ YES</text>
  <text x="840" y="497" fill="#34a853" font-size="9" font-weight="700">PASS</text>

  <text x="80" y="511" fill="#fbbc04" font-size="9">TC-02 Financial CSV</text>
  <text x="220" y="511" fill="#8899aa" font-size="9">SensitiveData:S3Object/Financial</text>
  <text x="420" y="511" fill="#ea4335" font-size="9" font-weight="700">HIGH</text>
  <text x="510" y="511" fill="#34a853" font-size="9">✓ FIRES</text>
  <text x="620" y="511" fill="#34a853" font-size="9">✓ FIRES</text>
  <text x="740" y="511" fill="#34a853" font-size="9">✓ YES</text>
  <text x="840" y="511" fill="#34a853" font-size="9" font-weight="700">PASS</text>

  <text x="80" y="525" fill="#ff8c42" font-size="9">TC-03 Credentials TXT</text>
  <text x="220" y="525" fill="#8899aa" font-size="9">SensitiveData:S3Object/Credentials</text>
  <text x="420" y="525" fill="#ea4335" font-size="9" font-weight="700">HIGH</text>
  <text x="510" y="525" fill="#34a853" font-size="9">✓ FIRES</text>
  <text x="620" y="525" fill="#34a853" font-size="9">✓ FIRES</text>
  <text x="740" y="525" fill="#34a853" font-size="9">✓ YES</text>
  <text x="840" y="525" fill="#34a853" font-size="9" font-weight="700">PASS</text>

  <text x="80" y="539" fill="#81c995" font-size="9">TC-04 Medical JSON</text>
  <text x="220" y="539" fill="#8899aa" font-size="9">SensitiveData:S3Object/Personal</text>
  <text x="420" y="539" fill="#ea4335" font-size="9" font-weight="700">HIGH</text>
  <text x="510" y="539" fill="#34a853" font-size="9">✓ FIRES</text>
  <text x="620" y="539" fill="#34a853" font-size="9">✓ FIRES</text>
  <text x="740" y="539" fill="#34a853" font-size="9">✓ YES</text>
  <text x="840" y="539" fill="#34a853" font-size="9" font-weight="700">PASS</text>

  <text x="80" y="553" fill="#ce93d8" font-size="9">TC-05 Sample Findings</text>
  <text x="220" y="553" fill="#8899aa" font-size="9">Multiple (CLI generated)</text>
  <text x="420" y="553" fill="#ea4335" font-size="9" font-weight="700">HIGH</text>
  <text x="510" y="553" fill="#34a853" font-size="9">✓ FIRES</text>
  <text x="620" y="553" fill="#34a853" font-size="9">✓ FIRES</text>
  <text x="740" y="553" fill="#34a853" font-size="9">✓ YES</text>
  <text x="840" y="553" fill="#34a853" font-size="9" font-weight="700">PASS</text>

  <text x="80" y="567" fill="#90a4ae" font-size="9">TC-06 Clean File</text>
  <text x="220" y="567" fill="#8899aa" font-size="9">None (negative test)</text>
  <text x="420" y="567" fill="#607d8b" font-size="9" font-weight="700">NONE</text>
  <text x="510" y="567" fill="#607d8b" font-size="9">✗ NO FIRE</text>
  <text x="620" y="567" fill="#607d8b" font-size="9">✗ NO FIRE</text>
  <text x="740" y="567" fill="#607d8b" font-size="9">✗ NO</text>
  <text x="840" y="567" fill="#34a853" font-size="9" font-weight="700">PASS</text>

  <!-- Footer -->
  <text x="480" y="608" text-anchor="middle" fill="#3a4a5a" font-size="10">Capstone W10 · Amazon Macie · Test Event Pack</text>
</svg>
